<svg xmlns="http://www.w3.org/2000/svg" xmlns:xlink="http://www.w3.org/1999/xlink" xml:space="preserve" fill-rule="evenodd" stroke-linejoin="round" stroke-miterlimit="2" clip-rule="evenodd" viewBox="0 0 1024 1024"><defs><linearGradient xlink:href="#a" id="b" x1="460.702" x2="521.851" y1="533.831" y2="595.225" gradientTransform="matrix(11.11076 0 0 11.11212 -4910.836 -5774.719)" gradientUnits="userSpaceOnUse"/><linearGradient id="a"><stop offset="0" stop-color="#ff1300"/><stop offset="1" stop-color="#ff6e01"/></linearGradient></defs><path fill="url(#b)" d="m 393.35224,53.767639 -22.86029,72.214391 c -24.90048,10.76761 -49.80135,21.53512 -74.69855,32.30987 -26.4183,-5.56301 -52.90362,-12.00729 -79.6743,-15.23586 -4.22621,4.75537 -111.15498,169.18935 -111.12471,170.88841 4.92642,12.0619 13.38669,22.43781 19.78558,33.72543 l 388.921,136.59951 388.9206,-136.59951 c 6.39928,-11.28762 14.85926,-21.66353 19.78578,-33.72543 0.0203,-1.69886 -106.8986,-166.13304 -111.12481,-170.88841 -26.77068,3.22857 -53.2558,9.67285 -79.6742,15.23586 -24.89749,-10.77475 -49.79846,-21.54226 -74.69884,-32.30987 L 634.0494,53.767639 Z M 154.39975,397.35104 c -0.48205,-0.14784 -1.45158,0.57121 -1.48755,0.81358 -4.68458,38.19348 -13.83964,114.6061 -13.83964,114.6061 l 23.69733,102.4359 179.2829,81.44374 171.64701,-64.18188 171.64731,64.18188 179.28271,-81.44374 23.69742,-102.4359 c 0,0 -9.15515,-76.41262 -13.83973,-114.6061 -0.0503,-0.32584 -1.75367,-1.50437 -1.75367,-0.31276 -117.36561,41.71611 -239.79195,82.11702 -359.035,123.26433 -119.24286,-41.14731 -241.66911,-81.54822 -359.03529,-123.26433 0,-0.29767 -0.1055,-0.44752 -0.26631,-0.50082 z m 90.16557,91.29851 c 56.30923,19.42203 113.07982,38.70969 169.8477,57.99504 a 91.405412,91.380323 0 0 1 -4.29517,17.46502 91.405412,91.380323 0 0 1 -117.40689,54.06884 91.405412,91.380323 0 0 1 -54.08356,-117.3749 91.405412,91.380323 0 0 1 5.93792,-12.154 z m 538.271,0 a 91.405412,91.380323 0 0 1 5.93831,12.154 91.405412,91.380323 0 0 1 -54.08405,117.3749 91.405412,91.380323 0 0 1 -117.40699,-54.06884 91.405412,91.380323 0 0 1 -4.29497,-17.46502 c 56.76798,-19.28535 113.53867,-38.57301 169.8477,-57.99504 z M 108.06135,553.48047 65.008654,596.13034 129.50536,822.22937 333.35397,905.82368 322.38538,729.9376 129.06711,640.00018 Z m 811.27933,0 -21.00644,86.51971 -193.31798,89.93742 -10.96859,175.88608 203.84861,-83.59431 64.4968,-226.09912 z m -405.63971,116.45974 -152.86296,60.48233 9.27845,190.00348 143.58451,58.48007 143.58421,-58.48007 9.27874,-190.00348 z" paint-order="stroke fill markers" style="font-variation-settings:normal;-inkscape-stroke:none"/></svg>
