<svg xmlns="http://www.w3.org/2000/svg" xmlns:xlink="http://www.w3.org/1999/xlink" width="32" height="32"><defs><filter id="e" width="1.076" height="1.057" x="-.041" y="-.026" color-interpolation-filters="sRGB"><feFlood flood-opacity=".502" result="flood"/><feGaussianBlur in="SourceGraphic" result="blur" stdDeviation="10"/><feOffset dx="-4" dy="4" in="blur" result="offset"/><feComposite in="flood" in2="offset" operator="in" result="comp1"/><feComposite in="SourceGraphic" in2="comp1" result="comp2"/></filter><filter id="f" width="1.824" height="1.821" x="-.44" y="-.383" color-interpolation-filters="sRGB"><feFlood flood-opacity=".502" result="flood"/><feGaussianBlur in="SourceGraphic" result="blur" stdDeviation="20"/><feOffset dx="-10" dy="10" in="blur" result="offset"/><feComposite in="flood" in2="offset" operator="in" result="comp1"/><feComposite in="SourceGraphic" in2="comp1" result="fbSourceGraphic"/><feColorMatrix in="fbSourceGraphic" result="fbSourceGraphicAlpha" values="0 0 0 -1 0 0 0 0 -1 0 0 0 0 -1 0 0 0 0 1 0"/><feFlood flood-opacity=".2" result="flood"/><feGaussianBlur in="fbSourceGraphic" result="blur" stdDeviation="20"/><feOffset dx="-4" dy="4" in="blur" result="offset"/><feComposite in="flood" in2="offset" operator="in" result="comp1"/><feComposite in="fbSourceGraphic" in2="comp1" result="comp2"/></filter><filter id="a" width="1.076" height="1.057" x="-.041" y="-.026" color-interpolation-filters="sRGB"><feFlood flood-opacity=".502" result="flood"/><feGaussianBlur in="SourceGraphic" result="blur" stdDeviation="10"/><feOffset dx="-4" dy="4" in="blur" result="offset"/><feComposite in="flood" in2="offset" operator="in" result="comp1"/><feComposite in="SourceGraphic" in2="comp1" result="comp2"/></filter><filter id="b" width="2.262" height="2.261" x="-.68" y="-.582" color-interpolation-filters="sRGB"><feFlood flood-opacity=".4" result="flood"/><feGaussianBlur in="SourceGraphic" result="blur" stdDeviation="40"/><feOffset dx="-20" dy="20" in="blur" result="offset"/><feComposite in="flood" in2="offset" operator="in" result="comp1"/><feComposite in="SourceGraphic" in2="comp1" result="fbSourceGraphic"/><feColorMatrix in="fbSourceGraphic" result="fbSourceGraphicAlpha" values="0 0 0 -1 0 0 0 0 -1 0 0 0 0 -1 0 0 0 0 1 0"/><feFlood flood-opacity=".2" result="flood"/><feGaussianBlur in="fbSourceGraphic" result="blur" stdDeviation="20"/><feOffset dx="-4" dy="4" in="blur" result="offset"/><feComposite in="flood" in2="offset" operator="in" result="comp1"/><feComposite in="fbSourceGraphic" in2="comp1" result="comp2"/></filter><linearGradient id="d" x1="460.7" x2="521.85" y1="533.83" y2="595.22" gradientTransform="matrix(.17684 0 0 .16178 -70.338 -73.592)" gradientUnits="userSpaceOnUse"><stop offset="0" stop-color="#ff1300"/><stop offset="1" stop-color="#ff6e01"/></linearGradient><path id="c" fill="none" d="M0 0H1024V1024H0z"/></defs><g fill="#fff"><path d="m193 58c-13.85-6.8e-5 -25 11.15-25 25v858c0 13.85 11.15 25 25 25h638c13.85 0 25-11.15 25-25 0 0-4e-3 -609.4-6e-3 -609.4-0.0115-0.5396-0.48983-11.635-6.7988-23.109l-122.03-122.2-120.03-120.2c-7.1035-5.9158-16.659-7.5531-25.727-8.0757z" filter="url(#a)" transform="scale(.03125)"/><path d="m603.11 63.297c-6.4761-3.6844-14.251-4.8658-21.697-5.2949l-388.41-0.001953c-13.85-6.8e-5 -25 11.15-25 25v858c0 13.85 11.15 25 25 25h638c13.85 0 25-11.15 25-25 0 0-4e-3 -609.4-6e-3 -609.4-0.0108-0.50492-0.43123-10.253-5.6543-20.904h-222.23c-13.85 0-25-11.15-25-25z" transform="scale(.03125)"/><path d="m603.11 63.297v222.39c0 13.85 11.15 25 25 25h222.23c-0.35869-0.73152-0.7391-1.4677-1.1445-2.2051l-122.03-122.21-120.03-120.2c-1.2702-1.0579-2.619-1.9789-4.0293-2.7812z" filter="url(#b)" transform="scale(.03125)"/></g><use xlink:href="#c" stroke-width=".8" transform="scale(.03125)"/><g stroke-width=".32"><path fill="#fff" d="m22.268 20.443s-0.02-0.128-0.033-0.127l-2.318 0.224a0.377 0.377 0 0 0-0.34 0.35l-0.064 0.912-1.793 0.128-0.122-0.827a0.38 0.38 0 0 0-0.374-0.323h-2.447a0.38 0.38 0 0 0-0.374 0.323l-0.122 0.827-1.793-0.128-0.064-0.913a0.377 0.377 0 0 0-0.34-0.35l-2.32-0.223c-0.011-1e-3 -0.02 0.127-0.032 0.127l-3e-3 0.501 1.964 0.317 0.064 0.921a0.38 0.38 0 0 0 0.35 0.35l2.47 0.177h0.028a0.38 0.38 0 0 0 0.373-0.322l0.125-0.851h1.795l0.125 0.851a0.38 0.38 0 0 0 0.4 0.322l2.471-0.176a0.38 0.38 0 0 0 0.35-0.351l0.064-0.92 1.964-0.32z" display="none"/><path fill="#478cbf" d="m9.732 16.66v3.783h0.02l2.32 0.224c0.12088 0.01233 0.21539 0.1098 0.224 0.231l0.072 1.024 2.023 0.144 0.14-0.945c0.01825-0.12195 0.12269-0.21238 0.246-0.213h2.447c0.12369 1.22e-4 0.22869 0.09067 0.247 0.213l0.14 0.945 2.022-0.144 0.072-1.024c0.0091-0.12116 0.10407-0.2182 0.225-0.23l2.318-0.225h0.02v-0.302h1e-3v-3.481c0.33737-0.4036 0.62389-0.87278 0.873-1.246-0.36443-0.60387-0.79363-1.1662-1.28-1.677-0.44 0.22-0.867 0.472-1.27 0.738-0.202-0.2-0.43-0.364-0.653-0.536-0.22-0.176-0.466-0.305-0.701-0.456 0.07-0.52 0.104-1.032 0.118-1.566-0.60494-0.29518-1.2441-0.51418-1.903-0.652-0.26 0.438-0.499 0.913-0.707 1.376-0.24479-0.03861-0.49218-0.05834-0.74-0.059h-0.01c-0.24851 9.1e-4 -0.49658 0.02097-0.742 0.06-0.20869-0.47218-0.44442-0.93194-0.706-1.377-0.65885 0.13784-1.2981 0.35684-1.903 0.652 0.014 0.534 0.048 1.046 0.118 1.566-0.235 0.15-0.482 0.28-0.701 0.456-0.223 0.172-0.451 0.336-0.653 0.536-0.403-0.266-0.83-0.517-1.27-0.738-0.48634 0.51082-0.91555 1.0731-1.28 1.677 0.26953 0.45726 0.60775 0.88389 0.873 1.246z" display="none"/><path fill="#478cbf" d="m20.188 21.144-0.072 1.029a0.25 0.25 0 0 1-0.231 0.232l-2.47 0.176a0.25 0.25 0 0 1-0.265-0.213l-0.142-0.96h-2.015l-0.142 0.96a0.25 0.25 0 0 1-0.265 0.213l-2.47-0.176a0.25 0.25 0 0 1-0.231-0.232l-0.072-1.03-2.085-0.2c0 0.224 4e-3 0.47 4e-3 0.518 0 2.203 2.793 3.261 6.264 3.273h9e-3c3.47-0.012 6.263-1.07 6.263-3.273l4e-3 -0.518z" display="none"/><path fill="#fff" d="m14.11 18.195a1.397 1.397 0 1 1-2.794 1e-3 1.3975 1.3975 0 0 1 2.795 0" display="none"/><path fill="#414042" d="m13.774 18.278a0.927 0.927 0 1 1-1.854 0 0.927 0.927 0 0 1 1.854 0" display="none"/><path fill="#fff" d="m16 19.72c-0.248 0-0.45-0.183-0.45-0.409v-1.286c0-0.226 0.202-0.409 0.45-0.409 0.249 0 0.45 0.183 0.45 0.409v1.286c0 0.226-0.201 0.41-0.45 0.41m1.89-1.526a1.3975 1.3975 0 1 0 2.795 0 1.3975 1.3975 0 0 0-2.795 0" display="none"/><path fill="#414042" d="m18.227 18.278a0.927 0.927 0 1 0 1.854 0 0.927 0.927 0 0 0-1.854 0" display="none"/><path fill="url(#d)" d="m14.085 11.265-0.36385 1.0514c-0.39632 0.15676-0.79266 0.31353-1.1889 0.4704-0.42049-0.081-0.84202-0.17481-1.2681-0.22182-0.06731 0.06923-1.7692 2.4632-1.7687 2.4879 0.078383 0.17561 0.21307 0.32667 0.31491 0.49101l6.1902 1.9887 6.1902-1.9887c0.10186-0.16433 0.2365-0.3154 0.31492-0.49101 2.57e-4 -0.02473-1.7014-2.4187-1.7687-2.4879-0.42609 0.04701-0.84763 0.14082-1.2681 0.22182-0.39628-0.15687-0.7926-0.31363-1.1889-0.4704l-0.36384-1.0514zm-3.8032 5.0022c-0.0078-0.0021-0.02315 0.0083-0.02371 0.01184-0.07458 0.55605-0.22028 1.6685-0.22028 1.6685l0.37718 1.4914 2.8535 1.1857 2.732-0.93442 2.732 0.93442 2.8535-1.1857 0.37718-1.4914s-0.14572-1.1125-0.22028-1.6685c-7.83e-4 -0.0047-0.02796-0.0219-0.02796-0.0045-1.868 0.60734-3.8166 1.1955-5.7145 1.7946-1.8979-0.59906-3.8465-1.1873-5.7145-1.7946 0-0.0043-0.0011-0.0065-0.0045-0.0073zm1.4351 1.3292c0.89623 0.28276 1.7998 0.56357 2.7033 0.84434a1.4548 1.3304 0 0 1-0.06832 0.25427 1.4548 1.3304 0 0 1-1.8687 0.78718 1.4548 1.3304 0 0 1-0.86081-1.7088 1.4548 1.3304 0 0 1 0.09449-0.17695zm8.5672 0a1.4548 1.3304 0 0 1 0.09448 0.17695 1.4548 1.3304 0 0 1-0.86081 1.7088 1.4548 1.3304 0 0 1-1.8687-0.78718 1.4548 1.3304 0 0 1-0.06832-0.25427c0.90353-0.28077 1.8071-0.56158 2.7033-0.84434zm-10.74 0.94387-0.68523 0.62093 1.0265 3.2918 3.2445 1.217-0.17458-2.5607-3.0769-1.3094zm12.913 0-0.33434 1.2596-3.0769 1.3094-0.17458 2.5607 3.2445-1.217 1.0265-3.2918zm-6.4563 1.6955-2.433 0.88056 0.14769 2.7662 2.2853 0.8514 2.2853-0.8514 0.14769-2.7662z" paint-order="stroke fill markers" style="-inkscape-stroke:none;font-variation-settings:normal"/></g><path fill="#fff" d="m193 58c-13.85 0-25 11.15-25 25v858c0 13.85 11.15 25 25 25h638c13.85 0 25-11.15 25-25v-619.4c-2e-3 -6.7e-4 -4e-3 -1e-3 -6e-3 -2e-3 -0.0799-3.7499-0.37203-8.5-2.7695-10.904l-250.12-250.83v0.0078c-3.101-1.2728-6.4008-1.9014-9.6973-1.8711v-0.0019z" filter="url(#e)" transform="matrix(.03125 0 0 .02553 -485 .923)"/><path fill="#fff" d="m603.11 59.865v225.83c0 13.85 11.15 25 25 25h225.12c-71.736-71.736-164.62-165.33-250.12-250.83z" filter="url(#f)" transform="matrix(.03125 0 0 .02553 -485 .923)"/><use xlink:href="#c" stroke-width=".8" transform="matrix(.03125 0 0 .02553 -485 .923)"/></svg>
