<svg xmlns="http://www.w3.org/2000/svg" xmlns:xlink="http://www.w3.org/1999/xlink" width="1024" height="1024"><defs><filter id="a" width="1.076" height="1.057" x="-.041" y="-.026" color-interpolation-filters="sRGB"><feFlood flood-opacity=".502" result="flood"/><feGaussianBlur in="SourceGraphic" result="blur" stdDeviation="10"/><feOffset dx="-4" dy="4" in="blur" result="offset"/><feComposite in="flood" in2="offset" operator="in" result="comp1"/><feComposite in="SourceGraphic" in2="comp1" result="comp2"/></filter><filter id="b" width="2.262" height="2.261" x="-.68" y="-.582" color-interpolation-filters="sRGB"><feFlood flood-opacity=".4" result="flood"/><feGaussianBlur in="SourceGraphic" result="blur" stdDeviation="40"/><feOffset dx="-20" dy="20" in="blur" result="offset"/><feComposite in="flood" in2="offset" operator="in" result="comp1"/><feComposite in="SourceGraphic" in2="comp1" result="fbSourceGraphic"/><feColorMatrix in="fbSourceGraphic" result="fbSourceGraphicAlpha" values="0 0 0 -1 0 0 0 0 -1 0 0 0 0 -1 0 0 0 0 1 0"/><feFlood flood-opacity=".2" result="flood"/><feGaussianBlur in="fbSourceGraphic" result="blur" stdDeviation="20"/><feOffset dx="-4" dy="4" in="blur" result="offset"/><feComposite in="flood" in2="offset" operator="in" result="comp1"/><feComposite in="fbSourceGraphic" in2="comp1" result="comp2"/></filter><linearGradient id="c" x1="460.7" x2="521.85" y1="533.83" y2="595.22" gradientTransform="matrix(5.2495 0 0 5.2501 -2050.9 -2430.5)" gradientUnits="userSpaceOnUse"><stop offset="0" stop-color="#ff1300"/><stop offset="1" stop-color="#ff6e01"/></linearGradient></defs><g fill="#fff"><path d="m193 58c-13.85-6.8e-5 -25 11.15-25 25v858c0 13.85 11.15 25 25 25h638c13.85 0 25-11.15 25-25 0 0-4e-3 -609.4-6e-3 -609.4-0.0115-0.5396-0.48983-11.635-6.7988-23.109l-122.03-122.2-120.03-120.2c-7.1035-5.9158-16.659-7.5531-25.727-8.0757z" filter="url(#a)"/><path d="m603.11 63.297c-6.4761-3.6844-14.251-4.8658-21.697-5.2949l-388.41-0.001953c-13.85-6.8e-5 -25 11.15-25 25v858c0 13.85 11.15 25 25 25h638c13.85 0 25-11.15 25-25 0 0-4e-3 -609.4-6e-3 -609.4-0.0108-0.50492-0.43123-10.253-5.6543-20.904h-222.23c-13.85 0-25-11.15-25-25z"/><path d="m603.11 63.297v222.39c0 13.85 11.15 25 25 25h222.23c-0.35869-0.73152-0.7391-1.4677-1.1445-2.2051l-122.03-122.21-120.03-120.2c-1.2702-1.0579-2.619-1.9789-4.0293-2.7812z" filter="url(#b)"/></g><path fill="none" d="m0 0h1024v1024h-1024z"/><g stroke-width=".32"><path fill="#fff" d="m712.57 590.17s-0.666-4.089-1.056-4.052l-74.179 7.157a12.056 12.056 0 0 0-10.9 11.191l-2.038 29.21-57.387 4.094-3.905-26.472c-0.868-5.888-6.01-10.327-11.961-10.327h-78.292c-5.95 0-11.09 4.439-11.96 10.327l-3.906 26.472-57.387-4.095-2.038-29.208a12.057 12.057 0 0 0-10.901-11.194l-74.214-7.155c-0.384-0.037-0.665 4.056-1.049 4.056l-0.1 16.052 62.853 10.136 2.059 29.47c0.416 5.965 5.23 10.788 11.2 11.217l79.035 5.638c0.299 0.021 0.594 0.033 0.89 0.033 5.94 0 11.072-4.44 11.941-10.329l4.017-27.237h57.414l4.017 27.237c0.867 5.886 6.006 10.326 11.953 10.326 0.292 0 0.583-9e-3 0.868-0.03l79.046-5.638c5.967-0.428 10.783-5.252 11.2-11.218l2.056-29.469 62.826-10.18z" display="none" transform="translate(0 30)"/><path fill="#478cbf" d="m311.4 469.13v121.04c0.221 3e-3 0.443 0.01 0.662 0.031l74.207 7.155c3.887 0.37478 6.9337 3.5043 7.204 7.4l2.289 32.756 64.731 4.619 4.46-30.234c0.57822-3.9198 3.9418-6.8238 7.904-6.824h78.292c3.9622 2.3e-4 7.3258 2.9042 7.904 6.824l4.458 30.234 64.733-4.619 2.287-32.757c0.27147-3.8948 3.3169-7.0236 7.203-7.4l74.178-7.154c0.22-0.02 0.44-0.028 0.66-0.031v-9.658l0.032-0.01v-111.37c10.45-13.155 20.344-27.666 27.925-39.874-11.586-19.722-25.78-37.347-40.954-53.677-14.073 7.083-27.74 15.108-40.65 23.647-6.46-6.421-13.736-11.674-20.883-17.164-7.022-5.64-14.936-9.775-22.44-14.593 2.234-16.641 3.339-33.024 3.783-50.122-19.366-9.747-40.017-16.209-60.905-20.85-8.34 14.017-15.967 29.196-22.61 44.035-7.876-1.316-15.79-1.804-23.713-1.898v-0.013c-0.055 0-0.107 0.013-0.154 0.013-0.05 0-0.1-0.013-0.15-0.013v0.013c-7.937 0.095-15.845 0.582-23.724 1.898-6.638-14.84-14.261-30.018-22.613-44.035-20.879 4.641-41.532 11.104-60.895 20.85 0.442 17.098 1.548 33.48 3.788 50.122-7.52 4.818-15.423 8.953-22.447 14.592-7.137 5.491-14.425 10.745-20.887 17.165-12.91-8.539-26.573-16.564-40.65-23.646-15.173 16.329-29.36 33.953-40.95 53.676 9.1075 14.297 18.879 28.668 27.925 39.873z" display="none" transform="translate(0 30)"/><path fill="#478cbf" d="m646 612.62-2.3 32.93a7.992 7.992 0 0 1-7.402 7.413l-79.044 5.64a7.991 7.991 0 0 1-8.474-6.806l-4.531-30.74h-64.496l-4.533 30.74c-0.608 4.137-4.308 7.112-8.474 6.806l-79.043-5.64a7.992 7.992 0 0 1-7.402-7.413l-2.3-32.931-66.726-6.434c0.032 7.173 0.124 15.028 0.124 16.592 0 70.472 89.397 104.34 200.46 104.73h0.273c111.07-0.39 200.44-34.262 200.44-104.73 0-1.592 0.096-9.416 0.129-16.592z" display="none" transform="translate(0 30)"/><path fill="#fff" d="m451.53 518.26c0 24.71-20.02 44.725-44.72 44.725-24.688 0-44.714-20.016-44.714-44.725 0-24.691 20.026-44.697 44.713-44.697 24.7 0 44.72 20.006 44.72 44.697" display="none" transform="translate(0 30)"/><path fill="#414042" d="m440.77 520.92c0 16.388-13.283 29.671-29.684 29.671-16.393 0-29.684-13.283-29.684-29.671 0-16.39 13.29-29.685 29.684-29.685 16.401 0 29.684 13.295 29.684 29.685" display="none" transform="translate(0 30)"/><path fill="#fff" d="m512 567.05c-7.951 0-14.394-5.86-14.394-13.081v-41.17c0-7.216 6.444-13.08 14.394-13.08s14.408 5.864 14.408 13.08v41.17c0 7.222-6.458 13.081-14.408 13.081m60.477-48.793c0 24.71 20.02 44.725 44.724 44.725 24.686 0 44.71-20.016 44.71-44.725 0-24.691-20.024-44.697-44.71-44.697-24.704 0-44.724 20.006-44.724 44.697" display="none" transform="translate(0 30)"/><path fill="#414042" d="m583.24 520.92c0 16.388 13.279 29.671 29.668 29.671 16.405 0 29.683-13.283 29.683-29.671 0-16.39-13.278-29.685-29.684-29.685-16.388 0-29.668 13.295-29.668 29.685" display="none" transform="translate(0 30)"/><path fill="url(#c)" d="m455.14 323.25-10.801 34.119c-11.765 5.0873-23.529 10.175-35.292 15.265-12.482-2.6284-24.995-5.673-37.643-7.1984-1.9967 2.2468-52.517 79.936-52.503 80.739 2.3276 5.6989 6.3248 10.601 9.3481 15.934l183.75 64.538 183.75-64.538c3.0234-5.333 7.0205-10.235 9.3481-15.934 8e-3 -0.80261-50.506-78.492-52.503-80.739-12.648 1.5254-25.162 4.57-37.643 7.1984-11.763-5.0907-23.528-10.178-35.293-15.265l-10.801-34.119zm-112.9 162.33c-0.2276-0.07-0.6858 0.26952-0.70278 0.3843-2.2133 18.045-6.5388 54.147-6.5388 54.147l11.196 48.397 84.705 38.479 81.097-30.324 81.097 30.324 84.705-38.479 11.196-48.397s-4.3255-36.102-6.5388-54.147c-0.0198-0.15374-0.82857-0.71075-0.82857-0.14768-55.451 19.709-113.29 38.797-169.63 58.238-56.338-19.441-114.18-38.529-169.63-58.238 0-0.14079-0.05-0.21161-0.12578-0.23657zm42.6 43.135c26.604 9.1762 53.426 18.289 80.247 27.401a43.186 43.174 0 0 1-2.0293 8.2516 43.186 43.174 0 0 1-55.471 25.546 43.186 43.174 0 0 1-25.553-55.455 43.186 43.174 0 0 1 2.8054-5.7424zm254.31 0a43.186 43.174 0 0 1 2.8056 5.7424 43.186 43.174 0 0 1-25.553 55.455 43.186 43.174 0 0 1-55.471-25.546 43.186 43.174 0 0 1-2.0292-8.2516c26.821-9.1116 53.643-18.224 80.247-27.401zm-318.81 30.63-20.341 20.151 30.473 106.82 96.312 39.495-5.1823-83.1-91.336-42.492zm383.3 0-9.9248 40.878-91.336 42.492-5.1823 83.1 96.312-39.495 30.472-106.82zm-191.65 55.023-72.222 28.576 4.3838 89.77 67.839 27.63 67.839-27.63 4.3839-89.77z" paint-order="stroke fill markers" style="-inkscape-stroke:none;font-variation-settings:normal"/></g><text x="227.434" y="878.644" fill="#333f67" font-family="Montserrat" font-size="16" font-weight="800" letter-spacing="0" word-spacing="0"><tspan x="227.434" y="878.644" font-size="112">PROJECT</tspan></text></svg>
