<svg xmlns="http://www.w3.org/2000/svg" xmlns:xlink="http://www.w3.org/1999/xlink" width="16" height="16"><defs><filter id="a" width="1.076" height="1.057" x="-.041" y="-.026" color-interpolation-filters="sRGB"><feFlood flood-opacity=".502" result="flood"/><feGaussianBlur in="SourceGraphic" result="blur" stdDeviation="10"/><feOffset dx="-4" dy="4" in="blur" result="offset"/><feComposite in="flood" in2="offset" operator="in" result="comp1"/><feComposite in="SourceGraphic" in2="comp1" result="comp2"/></filter><filter id="b" width="2.262" height="2.261" x="-.68" y="-.582" color-interpolation-filters="sRGB"><feFlood flood-opacity=".4" result="flood"/><feGaussianBlur in="SourceGraphic" result="blur" stdDeviation="40"/><feOffset dx="-20" dy="20" in="blur" result="offset"/><feComposite in="flood" in2="offset" operator="in" result="comp1"/><feComposite in="SourceGraphic" in2="comp1" result="fbSourceGraphic"/><feColorMatrix in="fbSourceGraphic" result="fbSourceGraphicAlpha" values="0 0 0 -1 0 0 0 0 -1 0 0 0 0 -1 0 0 0 0 1 0"/><feFlood flood-opacity=".2" result="flood"/><feGaussianBlur in="fbSourceGraphic" result="blur" stdDeviation="20"/><feOffset dx="-4" dy="4" in="blur" result="offset"/><feComposite in="flood" in2="offset" operator="in" result="comp1"/><feComposite in="fbSourceGraphic" in2="comp1" result="comp2"/></filter><linearGradient id="c" x1="460.7" x2="521.85" y1="533.83" y2="595.22" gradientTransform="matrix(.1146 0 0 .10482 -47.951 -49.981)" gradientUnits="userSpaceOnUse"><stop offset="0" stop-color="#ff1300"/><stop offset="1" stop-color="#ff6e01"/></linearGradient></defs><g fill="#fff"><path d="m193 58c-13.85-6.8e-5 -25 11.15-25 25v858c0 13.85 11.15 25 25 25h638c13.85 0 25-11.15 25-25 0 0-4e-3 -609.4-6e-3 -609.4-0.0115-0.5396-0.48983-11.635-6.7988-23.109l-122.03-122.2-120.03-120.2c-7.1035-5.9158-16.659-7.5531-25.727-8.0757z" filter="url(#a)" transform="scale(.01563)"/><path d="m603.11 63.297c-6.4761-3.6844-14.251-4.8658-21.697-5.2949l-388.41-0.001953c-13.85-6.8e-5 -25 11.15-25 25v858c0 13.85 11.15 25 25 25h638c13.85 0 25-11.15 25-25 0 0-4e-3 -609.4-6e-3 -609.4-0.0108-0.50492-0.43123-10.253-5.6543-20.904h-222.23c-13.85 0-25-11.15-25-25z" transform="scale(.01563)"/><path d="m603.11 63.297v222.39c0 13.85 11.15 25 25 25h222.23c-0.35869-0.73152-0.7391-1.4677-1.1445-2.2051l-122.03-122.21-120.03-120.2c-1.2702-1.0579-2.619-1.9789-4.0293-2.7812z" filter="url(#b)" transform="scale(.01563)"/></g><path fill="none" d="M0 0H1024V1024H0z" transform="scale(.01563)"/><g stroke-width=".32"><path fill="#fff" d="m12.062 10.583s-0.014-0.083-0.022-0.082l-1.502 0.145a0.244 0.244 0 0 0-0.22 0.226l-0.042 0.592-1.162 0.083-0.079-0.536a0.246 0.246 0 0 0-0.242-0.21h-1.585c-0.12 0-0.225 0.09-0.243 0.21l-0.079 0.536-1.162-0.083-0.041-0.592a0.244 0.244 0 0 0-0.22-0.226l-1.505-0.146c-7e-3 -1e-3 -0.013 0.082-0.02 0.082l-3e-3 0.325 1.273 0.205 0.042 0.597c8e-3 0.12 0.105 0.218 0.226 0.227l1.6 0.114h0.019c0.12 0 0.224-0.089 0.242-0.208l0.081-0.552h1.163l0.08 0.552a0.246 0.246 0 0 0 0.26 0.208l1.601-0.114a0.246 0.246 0 0 0 0.227-0.227l0.042-0.597 1.272-0.206z" display="none" transform="translate(0 .364)"/><path fill="#478cbf" d="m3.938 8.132v2.45l0.013 1e-3 1.503 0.145c0.078773 0.0076 0.14051 0.07105 0.146 0.15l0.046 0.663 1.311 0.094 0.09-0.612c0.01187-0.07924 0.079879-0.1379 0.16-0.138h1.586c0.080121 1.05e-4 0.14813 0.05876 0.16 0.138l0.09 0.612 1.311-0.094 0.046-0.663c0.0055-0.07895 0.06723-0.14238 0.146-0.15l1.502-0.145h0.014v-2.451c0.22118-0.25976 0.4028-0.56736 0.566-0.808-0.2363-0.39145-0.51462-0.75594-0.83-1.087-0.28351 0.14372-0.55832 0.304-0.823 0.48-0.13-0.13-0.278-0.237-0.422-0.348-0.143-0.115-0.303-0.198-0.455-0.296 0.044019-0.33669 0.069724-0.67552 0.077-1.015-0.39229-0.19117-0.80679-0.33292-1.234-0.422-0.16919 0.28839-0.32177 0.58621-0.457 0.892-0.15876-0.025308-0.31924-0.038346-0.48-0.039h-7e-3c-0.16 2e-3 -0.32 0.012-0.48 0.039-0.13541-0.30588-0.28833-0.60371-0.458-0.892-0.42686 0.089171-0.84102 0.23092-1.233 0.422 9e-3 0.346 0.031 0.678 0.076 1.015-0.152 0.098-0.312 0.181-0.454 0.296-0.145 0.11-0.292 0.217-0.423 0.347-0.26469-0.17568-0.5395-0.33563-0.823-0.479-0.307 0.331-0.595 0.688-0.83 1.087 0.17186 0.29827 0.39674 0.57171 0.566 0.808z" display="none" transform="translate(0 .364)"/><path fill="#478cbf" d="m10.714 11.037-0.047 0.667a0.162 0.162 0 0 1-0.15 0.15l-1.6 0.114a0.162 0.162 0 0 1-0.172-0.137l-0.092-0.623h-1.306l-0.092 0.623a0.162 0.162 0 0 1-0.171 0.137l-1.6-0.114a0.162 0.162 0 0 1-0.15-0.15l-0.047-0.667-1.351-0.13 2e-3 0.336c0 1.427 1.81 2.113 4.06 2.12h5e-3c2.25-7e-3 4.059-0.693 4.059-2.12l2e-3 -0.336z" display="none" transform="translate(0 .364)"/><path fill="#fff" d="m6.776 9.127a0.9055 0.9055 0 1 1-1.811 0 0.905 0.905 0 0 1 1.81 0" display="none" transform="translate(0 .364)"/><path fill="#414042" d="m6.558 9.18a0.601 0.601 0 1 1-1.202 0 0.601 0.601 0 0 1 1.202 0" display="none" transform="translate(0 .364)"/><path fill="#fff" d="m8 10.115c-0.16 0-0.291-0.119-0.291-0.265v-0.834c0-0.146 0.13-0.265 0.291-0.265s0.292 0.119 0.292 0.265v0.834c0 0.146-0.13 0.265-0.292 0.265m1.225-0.988a0.906 0.906 0 1 0 1.81 0 0.906 0.906 0 0 0-1.81 0" display="none" transform="translate(0 .364)"/><path fill="#414042" d="m9.443 9.18a0.6005 0.6005 0 1 0 1.201 0 0.6005 0.6005 0 0 0-1.201 0" display="none" transform="translate(0 .364)"/><path fill="url(#c)" d="m6.7587 5-0.23579 0.68121c-0.25683 0.10157-0.51367 0.20314-0.77047 0.30479-0.27249-0.052477-0.54567-0.11327-0.82179-0.14372-0.04359 0.044859-1.1465 1.596-1.1462 1.612 0.050814 0.11378 0.13808 0.21166 0.20408 0.31814l4.0115 1.2886 4.0115-1.2886c0.066-0.10648 0.15326-0.20436 0.20408-0.31814 1.82e-4 -0.016025-1.1026-1.5672-1.1462-1.612-0.27612 0.030456-0.5493 0.091245-0.82179 0.14372-0.2568-0.10164-0.51364-0.20321-0.77048-0.30479l-0.23579-0.68121zm-2.4647 3.2411c-0.00497-0.0014-0.014972 0.00538-0.015343 0.00767-0.048318 0.36029-0.14275 1.0811-0.14275 1.0811l0.24442 0.9663 1.8492 0.76827 1.7704-0.60544 1.7704 0.60544 1.8492-0.76827 0.24442-0.9663s-0.09443-0.72082-0.14275-1.0811c-4.32e-4 -0.00307-0.01809-0.014191-0.01809-0.00295-1.2106 0.39352-2.4733 0.77463-3.7032 1.1628-1.2299-0.38815-2.4927-0.76926-3.7032-1.1628 0-0.00281-0.00109-0.00422-0.00275-0.00472zm0.93001 0.86124c0.5808 0.18321 1.1664 0.36516 1.7519 0.54708a0.94279 0.86201 0 0 1-0.044302 0.16475 0.94279 0.86201 0 0 1-1.211 0.51004 0.94279 0.86201 0 0 1-0.55784-1.1072 0.94279 0.86201 0 0 1 0.061245-0.11465zm5.552 0a0.94279 0.86201 0 0 1 0.06125 0.11465 0.94279 0.86201 0 0 1-0.55784 1.1072 0.94279 0.86201 0 0 1-1.211-0.51004 0.94279 0.86201 0 0 1-0.0443-0.16475c0.58553-0.18192 1.1711-0.36387 1.7519-0.54708zm-6.9599 0.61156-0.44406 0.40232 0.66525 2.1328 2.1026 0.78856-0.11313-1.6592-1.994-0.8484zm8.3679 0-0.21667 0.81616-1.994 0.8484-0.11313 1.6592 2.1026-0.78856 0.66525-2.1328zm-4.1839 1.0986-1.5767 0.57054 0.095702 1.7923 1.481 0.55165 1.481-0.55165 0.095706-1.7923z" paint-order="stroke fill markers" style="-inkscape-stroke:none;font-variation-settings:normal"/></g></svg>
